<svg xmlns="http://www.w3.org/2000/svg" viewBox="0 0 640 360" width="640" height="360" role="img"><title>Bryn leans on her pole beside the finished signpost with its red arm and a small red marker flag; the path toward the viewer lies open.</title>
<rect x="0" y="0" width="640" height="360" fill="#EEF2EF"/><rect x="0" y="140" width="640" height="50" fill="#DCE5E2" opacity=".25"/><rect x="0" y="190" width="640" height="90" fill="#DCE5E2" opacity=".6"/><circle cx="505" cy="88" r="30" fill="#F7F1DE"/><g class="anim-cloud"><ellipse cx="110" cy="80" rx="34" ry="9" fill="#FAFCFA" opacity=".95"/><ellipse cx="92" cy="73" rx="16" ry="9" fill="#FAFCFA" opacity=".95"/><ellipse cx="120" cy="69" rx="20" ry="12" fill="#FAFCFA" opacity=".95"/></g><g class="anim-cloud"><ellipse cx="480" cy="58" rx="27.2" ry="7.2" fill="#FAFCFA" opacity=".95"/><ellipse cx="465.6" cy="52.4" rx="12.8" ry="7.2" fill="#FAFCFA" opacity=".95"/><ellipse cx="488" cy="49.2" rx="16" ry="9.6" fill="#FAFCFA" opacity=".95"/></g><path d="M0 196L58 160L112 188L176 138L246 182L314 152L394 190L470 132L540 176L598 150L640 172V270H0Z" fill="#B9C8CC"/><path d="M0 232L82 196L150 226L232 186L312 228L392 202L472 234L560 196L640 224V280H0Z" fill="#8FA5AE"/><path d="M0 252C90 232 170 258 260 248S470 228 560 246S620 252 640 246V300H0Z" fill="#5E7682"/><path d="M24 268L36 228L48 268Z" fill="#4A665F"/><path d="M27.2 252L36 223.2L44.8 252Z" fill="#4A665F"/><path d="M49 270L58 240L67 270Z" fill="#4A665F"/><path d="M51.4 258L58 236.4L64.6 258Z" fill="#4A665F"/><path d="M567.2 268L578 232L588.8 268Z" fill="#4A665F"/><path d="M570.08 253.6L578 227.68L585.92 253.6Z" fill="#4A665F"/><path d="M590.8 270L604 226L617.2 270Z" fill="#4A665F"/><path d="M594.32 252.4L604 220.72L613.68 252.4Z" fill="#4A665F"/><path d="M613 266L622 236L631 266Z" fill="#4A665F"/><path d="M615.4 254L622 232.4L628.6 254Z" fill="#4A665F"/><path d="M140.2 262L148 236L155.8 262Z" fill="#4A665F"/><path d="M142.28 251.6L148 232.88L153.72 251.6Z" fill="#4A665F"/><path d="M0 360V274C120 262 220 270 320 266S520 260 640 272V360Z" fill="#8CA27C"/><path d="M359 360C379 330 385 302 408 290L432 290C455 302 461 330 481 360Z" fill="#CDBF9F"/><path d="M422 278.2Q337.8 259 250.3 260L249.7 264Q335.5 272.8 418 301.8Z" fill="#CDBF9F"/><path d="M432 290Q427 273.5 422 257L418 257Q413 273.5 408 290Z" fill="#CDBF9F"/><path d="M422 301.8Q504.5 272.8 590.3 264L589.7 260Q502.2 259 418 278.2Z" fill="#CDBF9F"/><ellipse cx="420" cy="290" rx="15" ry="7" fill="#CDBF9F"/><rect x="196" y="162" width="8" height="140" fill="#8A6A45"/><rect x="195" y="159" width="10" height="5" rx="2" fill="#8A6A45"/><g transform="rotate(-4 200 183)"><path d="M197 172L276 172L288 183L276 194L197 194Z" fill="#C8432F"/><circle cx="200" cy="183" r="2.2" fill="#7E7A6E"/></g><g transform="rotate(0 200 213)"><path d="M203 202L148 202L136 213L148 224L203 224Z" fill="#B79868"/><circle cx="200" cy="213" r="2.2" fill="#7E7A6E"/></g><g transform="translate(272 342) scale(1.3 1.3)"><path d="M31 0L23.3 -86" fill="none" stroke="#8A6A45" stroke-width="3.2" stroke-linecap="round"/><circle cx="23.3" cy="-86" r="1.6" fill="#7E7A6E"/><path d="M-5 -32L-4 -4" fill="none" stroke="#2B3B48" stroke-width="9.5" stroke-linecap="round"/><ellipse cx="-1" cy="-3" rx="8" ry="4.6" fill="#3A2A20"/><path d="M6 -32L13 -4" fill="none" stroke="#2B3B48" stroke-width="9.5" stroke-linecap="round"/><ellipse cx="16" cy="-3" rx="8" ry="4.6" fill="#3A2A20"/><g class="anim-breathe"><g transform="translate(0 -32) rotate(0)"><path d="M-6 -35L10 -22" fill="none" stroke="#9E3221" stroke-width="7.5" stroke-linecap="round"/><path d="M10 -22L22 -35" fill="none" stroke="#9E3221" stroke-width="7" stroke-linecap="round"/><circle cx="22" cy="-35" r="3.4" fill="#C98F68"/><path d="M-12 2L13 2L10 -36Q8 -41 0 -41Q-8 -41 -10 -36Z" fill="#C8432F"/><path d="M3 2L13 2L10 -36Q8 -41 4 -41Z" fill="#9E3221"/><rect x="-12" y="-7" width="25" height="3" fill="#7C2A1D"/><ellipse cx="-1" cy="-40" rx="8.5" ry="3.6" fill="#9E3221"/><rect x="-3" y="-45" width="6" height="5" fill="#A8714F"/><path d="M-9 -36L10 -8" fill="none" stroke="#D8B26A" stroke-width="4.6" stroke-linecap="round"/><path d="M-9 -36L10 -8" fill="none" stroke="#B8924A" stroke-width="4.6" stroke-linecap="round" stroke-dasharray="2 3.2"/><ellipse cx="-9" cy="-29" rx="5.4" ry="9" fill="none" stroke="#D8B26A" stroke-width="3.4"/><ellipse cx="-7" cy="-29" rx="4.6" ry="8" fill="none" stroke="#B8924A" stroke-width="1.4"/><path d="M6 -35L16 -22" fill="none" stroke="#C8432F" stroke-width="7.5" stroke-linecap="round"/><path d="M16 -22L20 -33" fill="none" stroke="#C8432F" stroke-width="7" stroke-linecap="round"/><circle cx="20" cy="-33" r="3.4" fill="#C98F68"/><g><g transform="translate(0 -52)"><path d="M-6 -3Q-17 0 -14 14Q-9 10 -5 4Z" fill="#4A3226"/><circle cx="0" cy="0" r="8.5" fill="#C98F68"/><path d="M-8.4 0Q-8.4 -8 0 -8.5L0 7Q-6 7 -8.4 0Z" fill="#4A3226"/><circle cx="4.4" cy="0.5" r="1.2" fill="#1F2D38"/><path d="M2.4 4.7Q4.4 6 6 4.4" fill="none" stroke="#A8714F" stroke-width="1.1" stroke-linecap="round"/><ellipse cx="0" cy="-4.5" rx="17.5" ry="4.3" fill="#6B5236"/><path d="M-9 -5Q-9.5 -18.5 0 -18.5Q9.5 -18.5 9 -5Z" fill="#6B5236"/><rect x="-9.2" y="-9.5" width="18.4" height="3.4" fill="#4B3A26"/><ellipse cx="0" cy="-4.2" rx="17.5" ry="1.6" fill="#55412B" opacity=".7"/></g></g></g></g></g><path d="M530 318L530 246" fill="none" stroke="#8A6A45" stroke-width="2.8" stroke-linecap="round"/><g class="anim-flag"><path d="M531 246L563 255L531 268Z" fill="#C8432F"/></g><circle cx="530" cy="246" r="2.6" fill="#9E3221"/>
</svg>
